# xmcd CD database file
# Copyright (C) 1993-1998 Ti Kan
#
# Track frame offsets:
#	150
#	18025
#	39325
#	58100
#	75975
#	92575
#	106290
#	123600
#	138275
#	152725
#	173327
#	199680
#	214460
#	230697
#	249300
#	259385
#
# Disc length: 3751 seconds
#
# Revision: 1
# Processed by: cddbd v1.4b41PL1 Copyright (c) Steve Scherf et al.
# Submitted via: CDValet v3.01 - Copyright (c) 1997 Greg Leichner
#
DISCID=cd0ea510
DTITLE=Pink and White Bridge - Eden in Sight
DYEAR=1900
DGENRE=
TTITLE0=Compassion
TTITLE1=Roving
TTITLE2=To me I'm True
TTITLE3=Freedom's Gone
TTITLE4=Baby Me
TTITLE5=Do Dad Day
TTITLE6=Who's Gonna Love Ya
TTITLE7=Never Ending Circle
TTITLE8=Moonlight Blues
TTITLE9=One Mistake
TTITLE10=Fire in Bondi
TTITLE11=Pigs Might Fly
TTITLE12=Eden in Sight
TTITLE13=Highly Likely
TTITLE14=Yanks
TTITLE15=When I'm Gone
EXTD=
EXTT0=
EXTT1=
EXTT2=
EXTT3=
EXTT4=
EXTT5=
EXTT6=
EXTT7=
EXTT8=
EXTT9=
EXTT10=
EXTT11=
EXTT12=
EXTT13=
EXTT14=
EXTT15=
PLAYORDER=
